<mxfile host="app.diagrams.net">
  <diagram name="SubscriptionHistory Model Table ERD" id="subscriptionHistory-model-table-erd">
    <mxGraphModel dx="692" dy="402" grid="1" gridSize="10" guides="1" tooltips="1" connect="1" arrows="1" fold="1" page="1" pageScale="1" pageWidth="900" pageHeight="480" math="0" shadow="0">
      <root>
        <mxCell id="0" />
        <mxCell id="1" parent="0" />
        <!-- Tiêu đề lớn -->
        <mxCell id="bigTitle" value="SUBSCRIPTION HISTORY MODEL - ERD TABLE" style="text;html=1;strokeColor=none;fillColor=none;align=center;fontSize=24;fontStyle=1;fontColor=#4472C4;" parent="1" vertex="1">
          <mxGeometry x="50" y="20" width="800" height="50" as="geometry" />
        </mxCell>
        <!-- Bảng ERD -->
        <mxCell id="subscriptionHistoryTable" value="" style="shape=table;startSize=0;container=1;collapsible=0;childLayout=tableLayout;fixedRows=1;rowLines=0;fontStyle=1;align=center;resizeLast=1;strokeColor=#000000;fillColor=#ffffff;" parent="1" vertex="1">
          <mxGeometry x="50" y="80" width="800" height="384" as="geometry" />
        </mxCell>
        <!-- Header -->
        <mxCell id="header" value="" style="shape=tableRow;horizontal=0;fillColor=#4472C4;strokeColor=#000000;" parent="subscriptionHistoryTable" vertex="1">
          <mxGeometry width="800" height="32" as="geometry" />
        </mxCell>
        <mxCell id="h1" value="Tên trường" style="shape=partialRectangle;connectable=0;fillColor=#4472C4;align=center;fontStyle=1;fontSize=12;fontColor=#ffffff;" parent="header" vertex="1"><mxGeometry width="120" height="32" as="geometry" /></mxCell>
        <mxCell id="h2" value="Kiểu dữ liệu" style="shape=partialRectangle;connectable=0;fillColor=#4472C4;align=center;fontStyle=1;fontSize=12;fontColor=#ffffff;" parent="header" vertex="1"><mxGeometry x="120" width="90" height="32" as="geometry" /></mxCell>
        <mxCell id="h3" value="Ràng buộc/Enum" style="shape=partialRectangle;connectable=0;fillColor=#4472C4;align=center;fontStyle=1;fontSize=12;fontColor=#ffffff;" parent="header" vertex="1"><mxGeometry x="210" width="180" height="32" as="geometry" /></mxCell>
        <mxCell id="h4" value="Giá trị mặc định" style="shape=partialRectangle;connectable=0;fillColor=#4472C4;align=center;fontStyle=1;fontSize=12;fontColor=#ffffff;" parent="header" vertex="1"><mxGeometry x="390" width="110" height="32" as="geometry" /></mxCell>
        <mxCell id="h5" value="Mô tả" style="shape=partialRectangle;connectable=0;fillColor=#4472C4;align=center;fontStyle=1;fontSize=12;fontColor=#ffffff;" parent="header" vertex="1"><mxGeometry x="500" width="300" height="32" as="geometry" /></mxCell>
        <!-- Data Rows: 15 dòng, alternating màu, vừa khít -->
        <!-- _id -->
        <mxCell id="row1" value="" style="shape=tableRow;horizontal=0;fillColor=#FFE6CC;strokeColor=#000000;" parent="subscriptionHistoryTable" vertex="1"><mxGeometry y="32" width="800" height="24" as="geometry" /></mxCell>
        <mxCell id="r1c1" value="_id" style="shape=partialRectangle;connectable=0;fillColor=#FFE6CC;align=left;fontStyle=1;" parent="row1" vertex="1"><mxGeometry width="120" height="24" as="geometry" /></mxCell>
        <mxCell id="r1c2" value="ObjectId" style="shape=partialRectangle;connectable=0;fillColor=#FFE6CC;align=left;" parent="row1" vertex="1"><mxGeometry x="120" width="90" height="24" as="geometry" /></mxCell>
        <mxCell id="r1c3" value="Primary Key" style="shape=partialRectangle;connectable=0;fillColor=#FFE6CC;align=left;" parent="row1" vertex="1"><mxGeometry x="210" width="180" height="24" as="geometry" /></mxCell>
        <mxCell id="r1c4" value="Tự động" style="shape=partialRectangle;connectable=0;fillColor=#FFE6CC;align=left;" parent="row1" vertex="1"><mxGeometry x="390" width="110" height="24" as="geometry" /></mxCell>
        <mxCell id="r1c5" value="Khóa chính MongoDB" style="shape=partialRectangle;connectable=0;fillColor=#FFE6CC;align=left;" parent="row1" vertex="1"><mxGeometry x="500" width="300" height="24" as="geometry" /></mxCell>
        <!-- user_id -->
        <mxCell id="row2" value="" style="shape=tableRow;horizontal=0;fillColor=#E6F3FF;strokeColor=#000000;" parent="subscriptionHistoryTable" vertex="1"><mxGeometry y="56" width="800" height="24" as="geometry" /></mxCell>
        <mxCell id="r2c1" value="user_id" style="shape=partialRectangle;connectable=0;fillColor=#E6F3FF;align=left;" parent="row2" vertex="1"><mxGeometry width="120" height="24" as="geometry" /></mxCell>
        <mxCell id="r2c2" value="ObjectId" style="shape=partialRectangle;connectable=0;fillColor=#E6F3FF;align=left;" parent="row2" vertex="1"><mxGeometry x="120" width="90" height="24" as="geometry" /></mxCell>
        <mxCell id="r2c3" value="ref: User, required, index" style="shape=partialRectangle;connectable=0;fillColor=#E6F3FF;align=left;" parent="row2" vertex="1"><mxGeometry x="210" width="180" height="24" as="geometry" /></mxCell>
        <mxCell id="r2c4" value="" style="shape=partialRectangle;connectable=0;fillColor=#E6F3FF;align=left;" parent="row2" vertex="1"><mxGeometry x="390" width="110" height="24" as="geometry" /></mxCell>
        <mxCell id="r2c5" value="Người thực hiện thay đổi" style="shape=partialRectangle;connectable=0;fillColor=#E6F3FF;align=left;" parent="row2" vertex="1"><mxGeometry x="500" width="300" height="24" as="geometry" /></mxCell>
        <!-- action -->
        <mxCell id="row3" value="" style="shape=tableRow;horizontal=0;fillColor=#ffffff;strokeColor=#000000;" parent="subscriptionHistoryTable" vertex="1"><mxGeometry y="80" width="800" height="24" as="geometry" /></mxCell>
        <mxCell id="r3c1" value="action" style="shape=partialRectangle;connectable=0;fillColor=#ffffff;align=left;" parent="row3" vertex="1"><mxGeometry width="120" height="24" as="geometry" /></mxCell>
        <mxCell id="r3c2" value="String" style="shape=partialRectangle;connectable=0;fillColor=#ffffff;align=left;" parent="row3" vertex="1"><mxGeometry x="120" width="90" height="24" as="geometry" /></mxCell>
        <mxCell id="r3c3" value="enum, required, index" style="shape=partialRectangle;connectable=0;fillColor=#ffffff;align=left;" parent="row3" vertex="1"><mxGeometry x="210" width="180" height="24" as="geometry" /></mxCell>
        <mxCell id="r3c4" value="" style="shape=partialRectangle;connectable=0;fillColor=#ffffff;align=left;" parent="row3" vertex="1"><mxGeometry x="390" width="110" height="24" as="geometry" /></mxCell>
        <mxCell id="r3c5" value="Hành động thay đổi gói" style="shape=partialRectangle;connectable=0;fillColor=#ffffff;align=left;" parent="row3" vertex="1"><mxGeometry x="500" width="300" height="24" as="geometry" /></mxCell>
        <!-- from_plan -->
        <mxCell id="row4" value="" style="shape=tableRow;horizontal=0;fillColor=#E6F3FF;strokeColor=#000000;" parent="subscriptionHistoryTable" vertex="1"><mxGeometry y="104" width="800" height="24" as="geometry" /></mxCell>
        <mxCell id="r4c1" value="from_plan" style="shape=partialRectangle;connectable=0;fillColor=#E6F3FF;align=left;" parent="row4" vertex="1"><mxGeometry width="120" height="24" as="geometry" /></mxCell>
        <mxCell id="r4c2" value="String" style="shape=partialRectangle;connectable=0;fillColor=#E6F3FF;align=left;" parent="row4" vertex="1"><mxGeometry x="120" width="90" height="24" as="geometry" /></mxCell>
        <mxCell id="r4c3" value="enum, required" style="shape=partialRectangle;connectable=0;fillColor=#E6F3FF;align=left;" parent="row4" vertex="1"><mxGeometry x="210" width="180" height="24" as="geometry" /></mxCell>
        <mxCell id="r4c4" value="" style="shape=partialRectangle;connectable=0;fillColor=#E6F3FF;align=left;" parent="row4" vertex="1"><mxGeometry x="390" width="110" height="24" as="geometry" /></mxCell>
        <mxCell id="r4c5" value="Gói trước khi thay đổi" style="shape=partialRectangle;connectable=0;fillColor=#E6F3FF;align=left;" parent="row4" vertex="1"><mxGeometry x="500" width="300" height="24" as="geometry" /></mxCell>
        <!-- to_plan -->
        <mxCell id="row5" value="" style="shape=tableRow;horizontal=0;fillColor=#ffffff;strokeColor=#000000;" parent="subscriptionHistoryTable" vertex="1"><mxGeometry y="128" width="800" height="24" as="geometry" /></mxCell>
        <mxCell id="r5c1" value="to_plan" style="shape=partialRectangle;connectable=0;fillColor=#ffffff;align=left;" parent="row5" vertex="1"><mxGeometry width="120" height="24" as="geometry" /></mxCell>
        <mxCell id="r5c2" value="String" style="shape=partialRectangle;connectable=0;fillColor=#ffffff;align=left;" parent="row5" vertex="1"><mxGeometry x="120" width="90" height="24" as="geometry" /></mxCell>
        <mxCell id="r5c3" value="enum, required" style="shape=partialRectangle;connectable=0;fillColor=#ffffff;align=left;" parent="row5" vertex="1"><mxGeometry x="210" width="180" height="24" as="geometry" /></mxCell>
        <mxCell id="r5c4" value="" style="shape=partialRectangle;connectable=0;fillColor=#ffffff;align=left;" parent="row5" vertex="1"><mxGeometry x="390" width="110" height="24" as="geometry" /></mxCell>
        <mxCell id="r5c5" value="Gói sau khi thay đổi" style="shape=partialRectangle;connectable=0;fillColor=#ffffff;align=left;" parent="row5" vertex="1"><mxGeometry x="500" width="300" height="24" as="geometry" /></mxCell>
        <!-- from_date -->
        <mxCell id="row6" value="" style="shape=tableRow;horizontal=0;fillColor=#E6F3FF;strokeColor=#000000;" parent="subscriptionHistoryTable" vertex="1"><mxGeometry y="152" width="800" height="24" as="geometry" /></mxCell>
        <mxCell id="r6c1" value="from_date" style="shape=partialRectangle;connectable=0;fillColor=#E6F3FF;align=left;" parent="row6" vertex="1"><mxGeometry width="120" height="24" as="geometry" /></mxCell>
        <mxCell id="r6c2" value="Date" style="shape=partialRectangle;connectable=0;fillColor=#E6F3FF;align=left;" parent="row6" vertex="1"><mxGeometry x="120" width="90" height="24" as="geometry" /></mxCell>
        <mxCell id="r6c3" value="default: null" style="shape=partialRectangle;connectable=0;fillColor=#E6F3FF;align=left;" parent="row6" vertex="1"><mxGeometry x="210" width="180" height="24" as="geometry" /></mxCell>
        <mxCell id="r6c4" value="null" style="shape=partialRectangle;connectable=0;fillColor=#E6F3FF;align=left;" parent="row6" vertex="1"><mxGeometry x="390" width="110" height="24" as="geometry" /></mxCell>
        <mxCell id="r6c5" value="Ngày bắt đầu hiệu lực gói cũ" style="shape=partialRectangle;connectable=0;fillColor=#E6F3FF;align=left;" parent="row6" vertex="1"><mxGeometry x="500" width="300" height="24" as="geometry" /></mxCell>
        <!-- to_date -->
        <mxCell id="row7" value="" style="shape=tableRow;horizontal=0;fillColor=#ffffff;strokeColor=#000000;" parent="subscriptionHistoryTable" vertex="1"><mxGeometry y="176" width="800" height="24" as="geometry" /></mxCell>
        <mxCell id="r7c1" value="to_date" style="shape=partialRectangle;connectable=0;fillColor=#ffffff;align=left;" parent="row7" vertex="1"><mxGeometry width="120" height="24" as="geometry" /></mxCell>
        <mxCell id="r7c2" value="Date" style="shape=partialRectangle;connectable=0;fillColor=#ffffff;align=left;" parent="row7" vertex="1"><mxGeometry x="120" width="90" height="24" as="geometry" /></mxCell>
        <mxCell id="r7c3" value="default: null" style="shape=partialRectangle;connectable=0;fillColor=#ffffff;align=left;" parent="row7" vertex="1"><mxGeometry x="210" width="180" height="24" as="geometry" /></mxCell>
        <mxCell id="r7c4" value="null" style="shape=partialRectangle;connectable=0;fillColor=#ffffff;align=left;" parent="row7" vertex="1"><mxGeometry x="390" width="110" height="24" as="geometry" /></mxCell>
        <mxCell id="r7c5" value="Ngày kết thúc hiệu lực gói mới" style="shape=partialRectangle;connectable=0;fillColor=#ffffff;align=left;" parent="row7" vertex="1"><mxGeometry x="500" width="300" height="24" as="geometry" /></mxCell>
        <!-- effective_date -->
        <mxCell id="row8" value="" style="shape=tableRow;horizontal=0;fillColor=#E6F3FF;strokeColor=#000000;" parent="subscriptionHistoryTable" vertex="1"><mxGeometry y="200" width="800" height="24" as="geometry" /></mxCell>
        <mxCell id="r8c1" value="effective_date" style="shape=partialRectangle;connectable=0;fillColor=#E6F3FF;align=left;" parent="row8" vertex="1"><mxGeometry width="120" height="24" as="geometry" /></mxCell>
        <mxCell id="r8c2" value="Date" style="shape=partialRectangle;connectable=0;fillColor=#E6F3FF;align=left;" parent="row8" vertex="1"><mxGeometry x="120" width="90" height="24" as="geometry" /></mxCell>
        <mxCell id="r8c3" value="default: Date.now" style="shape=partialRectangle;connectable=0;fillColor=#E6F3FF;align=left;" parent="row8" vertex="1"><mxGeometry x="210" width="180" height="24" as="geometry" /></mxCell>
        <mxCell id="r8c4" value="Date.now" style="shape=partialRectangle;connectable=0;fillColor=#E6F3FF;align=left;" parent="row8" vertex="1"><mxGeometry x="390" width="110" height="24" as="geometry" /></mxCell>
        <mxCell id="r8c5" value="Ngày hiệu lực thay đổi" style="shape=partialRectangle;connectable=0;fillColor=#E6F3FF;align=left;" parent="row8" vertex="1"><mxGeometry x="500" width="300" height="24" as="geometry" /></mxCell>
        <!-- payment_id -->
        <mxCell id="row9" value="" style="shape=tableRow;horizontal=0;fillColor=#ffffff;strokeColor=#000000;" parent="subscriptionHistoryTable" vertex="1"><mxGeometry y="224" width="800" height="24" as="geometry" /></mxCell>
        <mxCell id="r9c1" value="payment_id" style="shape=partialRectangle;connectable=0;fillColor=#ffffff;align=left;" parent="row9" vertex="1"><mxGeometry width="120" height="24" as="geometry" /></mxCell>
        <mxCell id="r9c2" value="ObjectId" style="shape=partialRectangle;connectable=0;fillColor=#ffffff;align=left;" parent="row9" vertex="1"><mxGeometry x="120" width="90" height="24" as="geometry" /></mxCell>
        <mxCell id="r9c3" value="ref: Payment, default: null" style="shape=partialRectangle;connectable=0;fillColor=#ffffff;align=left;" parent="row9" vertex="1"><mxGeometry x="210" width="180" height="24" as="geometry" /></mxCell>
        <mxCell id="r9c4" value="null" style="shape=partialRectangle;connectable=0;fillColor=#ffffff;align=left;" parent="row9" vertex="1"><mxGeometry x="390" width="110" height="24" as="geometry" /></mxCell>
        <mxCell id="r9c5" value="Tham chiếu bản ghi thanh toán" style="shape=partialRectangle;connectable=0;fillColor=#ffffff;align=left;" parent="row9" vertex="1"><mxGeometry x="500" width="300" height="24" as="geometry" /></mxCell>
        <!-- amount -->
        <mxCell id="row10" value="" style="shape=tableRow;horizontal=0;fillColor=#E6F3FF;strokeColor=#000000;" parent="subscriptionHistoryTable" vertex="1"><mxGeometry y="248" width="800" height="24" as="geometry" /></mxCell>
        <mxCell id="r10c1" value="amount" style="shape=partialRectangle;connectable=0;fillColor=#E6F3FF;align=left;" parent="row10" vertex="1"><mxGeometry width="120" height="24" as="geometry" /></mxCell>
        <mxCell id="r10c2" value="Number" style="shape=partialRectangle;connectable=0;fillColor=#E6F3FF;align=left;" parent="row10" vertex="1"><mxGeometry x="120" width="90" height="24" as="geometry" /></mxCell>
        <mxCell id="r10c3" value="default: 0" style="shape=partialRectangle;connectable=0;fillColor=#E6F3FF;align=left;" parent="row10" vertex="1"><mxGeometry x="210" width="180" height="24" as="geometry" /></mxCell>
        <mxCell id="r10c4" value="0" style="shape=partialRectangle;connectable=0;fillColor=#E6F3FF;align=left;" parent="row10" vertex="1"><mxGeometry x="390" width="110" height="24" as="geometry" /></mxCell>
        <mxCell id="r10c5" value="Số tiền liên quan" style="shape=partialRectangle;connectable=0;fillColor=#E6F3FF;align=left;" parent="row10" vertex="1"><mxGeometry x="500" width="300" height="24" as="geometry" /></mxCell>
        <!-- reason -->
        <mxCell id="row11" value="" style="shape=tableRow;horizontal=0;fillColor=#ffffff;strokeColor=#000000;" parent="subscriptionHistoryTable" vertex="1"><mxGeometry y="272" width="800" height="24" as="geometry" /></mxCell>
        <mxCell id="r11c1" value="reason" style="shape=partialRectangle;connectable=0;fillColor=#ffffff;align=left;" parent="row11" vertex="1"><mxGeometry width="120" height="24" as="geometry" /></mxCell>
        <mxCell id="r11c2" value="String" style="shape=partialRectangle;connectable=0;fillColor=#ffffff;align=left;" parent="row11" vertex="1"><mxGeometry x="120" width="90" height="24" as="geometry" /></mxCell>
        <mxCell id="r11c3" value="maxlength: 500, default: null" style="shape=partialRectangle;connectable=0;fillColor=#ffffff;align=left;" parent="row11" vertex="1"><mxGeometry x="210" width="180" height="24" as="geometry" /></mxCell>
        <mxCell id="r11c4" value="null" style="shape=partialRectangle;connectable=0;fillColor=#ffffff;align=left;" parent="row11" vertex="1"><mxGeometry x="390" width="110" height="24" as="geometry" /></mxCell>
        <mxCell id="r11c5" value="Lý do thay đổi" style="shape=partialRectangle;connectable=0;fillColor=#ffffff;align=left;" parent="row11" vertex="1"><mxGeometry x="500" width="300" height="24" as="geometry" /></mxCell>
        <!-- triggered_by -->
        <mxCell id="row12" value="" style="shape=tableRow;horizontal=0;fillColor=#E6F3FF;strokeColor=#000000;" parent="subscriptionHistoryTable" vertex="1"><mxGeometry y="296" width="800" height="24" as="geometry" /></mxCell>
        <mxCell id="r12c1" value="triggered_by" style="shape=partialRectangle;connectable=0;fillColor=#E6F3FF;align=left;" parent="row12" vertex="1"><mxGeometry width="120" height="24" as="geometry" /></mxCell>
        <mxCell id="r12c2" value="Object" style="shape=partialRectangle;connectable=0;fillColor=#E6F3FF;align=left;" parent="row12" vertex="1"><mxGeometry x="120" width="90" height="24" as="geometry" /></mxCell>
        <mxCell id="r12c3" value="user_id, user_type, ip_address" style="shape=partialRectangle;connectable=0;fillColor=#E6F3FF;align=left;" parent="row12" vertex="1"><mxGeometry x="210" width="180" height="24" as="geometry" /></mxCell>
        <mxCell id="r12c4" value="user_type: 'user'" style="shape=partialRectangle;connectable=0;fillColor=#E6F3FF;align=left;" parent="row12" vertex="1"><mxGeometry x="390" width="110" height="24" as="geometry" /></mxCell>
        <mxCell id="r12c5" value="Người thực hiện, loại, IP" style="shape=partialRectangle;connectable=0;fillColor=#E6F3FF;align=left;" parent="row12" vertex="1"><mxGeometry x="500" width="300" height="24" as="geometry" /></mxCell>
        <!-- metadata -->
        <mxCell id="row13" value="" style="shape=tableRow;horizontal=0;fillColor=#ffffff;strokeColor=#000000;" parent="subscriptionHistoryTable" vertex="1"><mxGeometry y="320" width="800" height="24" as="geometry" /></mxCell>
        <mxCell id="r13c1" value="metadata" style="shape=partialRectangle;connectable=0;fillColor=#ffffff;align=left;" parent="row13" vertex="1"><mxGeometry width="120" height="24" as="geometry" /></mxCell>
        <mxCell id="r13c2" value="Object" style="shape=partialRectangle;connectable=0;fillColor=#ffffff;align=left;" parent="row13" vertex="1"><mxGeometry x="120" width="90" height="24" as="geometry" /></mxCell>
        <mxCell id="r13c3" value="duration_days, proration_amount, billing_cycle, notes" style="shape=partialRectangle;connectable=0;fillColor=#ffffff;align=left;" parent="row13" vertex="1"><mxGeometry x="210" width="180" height="24" as="geometry" /></mxCell>
        <mxCell id="r13c4" value="null" style="shape=partialRectangle;connectable=0;fillColor=#ffffff;align=left;" parent="row13" vertex="1"><mxGeometry x="390" width="110" height="24" as="geometry" /></mxCell>
        <mxCell id="r13c5" value="Thông tin phụ trợ" style="shape=partialRectangle;connectable=0;fillColor=#ffffff;align=left;" parent="row13" vertex="1"><mxGeometry x="500" width="300" height="24" as="geometry" /></mxCell>
        <!-- createdAt -->
        <mxCell id="row14" value="" style="shape=tableRow;horizontal=0;fillColor=#E6F3FF;strokeColor=#000000;" parent="subscriptionHistoryTable" vertex="1"><mxGeometry y="344" width="800" height="24" as="geometry" /></mxCell>
        <mxCell id="r14c1" value="createdAt" style="shape=partialRectangle;connectable=0;fillColor=#E6F3FF;align=left;" parent="row14" vertex="1"><mxGeometry width="120" height="24" as="geometry" /></mxCell>
        <mxCell id="r14c2" value="Date" style="shape=partialRectangle;connectable=0;fillColor=#E6F3FF;align=left;" parent="row14" vertex="1"><mxGeometry x="120" width="90" height="24" as="geometry" /></mxCell>
        <mxCell id="r14c3" value="auto (timestamps)" style="shape=partialRectangle;connectable=0;fillColor=#E6F3FF;align=left;" parent="row14" vertex="1"><mxGeometry x="210" width="180" height="24" as="geometry" /></mxCell>
        <mxCell id="r14c4" value="Date.now" style="shape=partialRectangle;connectable=0;fillColor=#E6F3FF;align=left;" parent="row14" vertex="1"><mxGeometry x="390" width="110" height="24" as="geometry" /></mxCell>
        <mxCell id="r14c5" value="Ngày tạo bản ghi" style="shape=partialRectangle;connectable=0;fillColor=#E6F3FF;align=left;" parent="row14" vertex="1"><mxGeometry x="500" width="300" height="24" as="geometry" /></mxCell>
        <!-- updatedAt -->
        <mxCell id="row15" value="" style="shape=tableRow;horizontal=0;fillColor=#ffffff;strokeColor=#000000;" parent="subscriptionHistoryTable" vertex="1"><mxGeometry y="368" width="800" height="24" as="geometry" /></mxCell>
        <mxCell id="r15c1" value="updatedAt" style="shape=partialRectangle;connectable=0;fillColor=#ffffff;align=left;" parent="row15" vertex="1"><mxGeometry width="120" height="24" as="geometry" /></mxCell>
        <mxCell id="r15c2" value="Date" style="shape=partialRectangle;connectable=0;fillColor=#ffffff;align=left;" parent="row15" vertex="1"><mxGeometry x="120" width="90" height="24" as="geometry" /></mxCell>
        <mxCell id="r15c3" value="auto (timestamps)" style="shape=partialRectangle;connectable=0;fillColor=#ffffff;align=left;" parent="row15" vertex="1"><mxGeometry x="210" width="180" height="24" as="geometry" /></mxCell>
        <mxCell id="r15c4" value="Date.now" style="shape=partialRectangle;connectable=0;fillColor=#ffffff;align=left;" parent="row15" vertex="1"><mxGeometry x="390" width="110" height="24" as="geometry" /></mxCell>
        <mxCell id="r15c5" value="Ngày cập nhật bản ghi" style="shape=partialRectangle;connectable=0;fillColor=#ffffff;align=left;" parent="row15" vertex="1"><mxGeometry x="500" width="300" height="24" as="geometry" /></mxCell>
      </root>
    </mxGraphModel>
  </diagram>
</mxfile>
